<svg width="343" height="86" viewBox="0 0 343 86" fill="none" xmlns="http://www.w3.org/2000/svg">
<path d="M8.276 28.24C6.916 28.24 5.66 28.072 4.508 27.736C3.372 27.384 2.396 26.904 1.58 26.296L2.54 23.872C3.084 24.256 3.652 24.584 4.244 24.856C4.836 25.112 5.468 25.312 6.14 25.456C6.812 25.584 7.524 25.648 8.276 25.648C9.54 25.648 10.452 25.44 11.012 25.024C11.572 24.608 11.852 24.064 11.852 23.392C11.852 22.8 11.66 22.352 11.276 22.048C10.892 21.728 10.204 21.464 9.212 21.256L6.5 20.704C4.948 20.384 3.788 19.848 3.02 19.096C2.252 18.344 1.868 17.336 1.868 16.072C1.868 15.016 2.148 14.096 2.708 13.312C3.268 12.528 4.052 11.92 5.06 11.488C6.068 11.056 7.244 10.84 8.588 10.84C9.788 10.84 10.9 11.016 11.924 11.368C12.948 11.704 13.804 12.192 14.492 12.832L13.532 15.136C12.844 14.56 12.092 14.136 11.276 13.864C10.46 13.576 9.548 13.432 8.54 13.432C7.404 13.432 6.516 13.656 5.876 14.104C5.252 14.536 4.94 15.136 4.94 15.904C4.94 16.496 5.132 16.968 5.516 17.32C5.916 17.672 6.588 17.944 7.532 18.136L10.22 18.664C11.82 18.984 13.004 19.512 13.772 20.248C14.54 20.968 14.924 21.944 14.924 23.176C14.924 24.184 14.652 25.072 14.108 25.84C13.564 26.592 12.796 27.184 11.804 27.616C10.812 28.032 9.636 28.24 8.276 28.24ZM23.4568 28.24C21.4248 28.24 19.8328 27.68 18.6808 26.56C17.5288 25.44 16.9528 23.904 16.9528 21.952C16.9528 20.688 17.2008 19.584 17.6968 18.64C18.1928 17.696 18.8808 16.96 19.7608 16.432C20.6568 15.904 21.6968 15.64 22.8808 15.64C24.0488 15.64 25.0248 15.888 25.8088 16.384C26.5928 16.88 27.1848 17.576 27.5848 18.472C28.0008 19.368 28.2088 20.416 28.2088 21.616V22.408H19.3768V20.824H26.0728L25.6648 21.16C25.6648 20.04 25.4248 19.184 24.9448 18.592C24.4808 18 23.8008 17.704 22.9048 17.704C21.9128 17.704 21.1448 18.056 20.6008 18.76C20.0728 19.464 19.8088 20.448 19.8088 21.712V22.024C19.8088 23.336 20.1288 24.32 20.7688 24.976C21.4248 25.616 22.3448 25.936 23.5288 25.936C24.2168 25.936 24.8568 25.848 25.4488 25.672C26.0568 25.48 26.6328 25.176 27.1768 24.76L28.0648 26.776C27.4888 27.24 26.8008 27.6 26.0008 27.856C25.2008 28.112 24.3528 28.24 23.4568 28.24ZM30.7252 28V18.976C30.7252 18.464 30.7092 17.944 30.6772 17.416C30.6612 16.888 30.6212 16.376 30.5572 15.88H33.4612L33.7972 19.192H33.3172C33.4772 18.392 33.7412 17.728 34.1092 17.2C34.4932 16.672 34.9572 16.28 35.5012 16.024C36.0452 15.768 36.6372 15.64 37.2772 15.64C37.5652 15.64 37.7972 15.656 37.9732 15.688C38.1492 15.704 38.3252 15.744 38.5012 15.808L38.4772 18.448C38.1732 18.32 37.9092 18.24 37.6852 18.208C37.4772 18.176 37.2132 18.16 36.8932 18.16C36.2052 18.16 35.6212 18.304 35.1412 18.592C34.6772 18.88 34.3252 19.28 34.0852 19.792C33.8612 20.304 33.7492 20.888 33.7492 21.544V28H30.7252ZM40.1711 28V15.88H43.1711V28H40.1711ZM40.0031 13.6V10.672H43.3391V13.6H40.0031ZM51.1089 28.24C50.0529 28.24 49.1249 27.992 48.3249 27.496C47.5249 26.984 46.9009 26.256 46.4529 25.312C46.0049 24.368 45.7809 23.24 45.7809 21.928C45.7809 20.616 46.0049 19.496 46.4529 18.568C46.9009 17.624 47.5249 16.904 48.3249 16.408C49.1249 15.896 50.0529 15.64 51.1089 15.64C52.1329 15.64 53.0289 15.896 53.7969 16.408C54.5809 16.904 55.1009 17.576 55.3569 18.424H55.0929L55.3569 15.88H58.2369C58.1889 16.376 58.1409 16.88 58.0929 17.392C58.0609 17.904 58.0449 18.408 58.0449 18.904V28H55.0689L55.0449 25.504H55.3329C55.0769 26.336 54.5569 27 53.7729 27.496C52.9889 27.992 52.1009 28.24 51.1089 28.24ZM51.9489 25.936C52.8929 25.936 53.6529 25.608 54.2289 24.952C54.8049 24.28 55.0929 23.272 55.0929 21.928C55.0929 20.584 54.8049 19.584 54.2289 18.928C53.6529 18.272 52.8929 17.944 51.9489 17.944C51.0049 17.944 50.2449 18.272 49.6689 18.928C49.0929 19.584 48.8049 20.584 48.8049 21.928C48.8049 23.272 49.0849 24.28 49.6449 24.952C50.2209 25.608 50.9889 25.936 51.9489 25.936ZM61.3117 28V18.904C61.3117 18.408 61.2957 17.904 61.2637 17.392C61.2317 16.88 61.1837 16.376 61.1197 15.88H64.0237L64.2637 18.28H63.9757C64.3117 17.448 64.8237 16.8 65.5117 16.336C66.2157 15.872 67.0477 15.64 68.0077 15.64C68.9677 15.64 69.7597 15.872 70.3837 16.336C71.0237 16.784 71.4717 17.488 71.7277 18.448H71.3437C71.6797 17.584 72.2317 16.904 72.9997 16.408C73.7677 15.896 74.6477 15.64 75.6397 15.64C76.9997 15.64 78.0157 16.04 78.6877 16.84C79.3597 17.64 79.6957 18.888 79.6957 20.584V28H76.6957V20.704C76.6957 19.744 76.5357 19.056 76.2157 18.64C75.8957 18.208 75.3837 17.992 74.6797 17.992C73.8477 17.992 73.1917 18.288 72.7117 18.88C72.2317 19.456 71.9917 20.24 71.9917 21.232V28H68.9917V20.704C68.9917 19.744 68.8317 19.056 68.5117 18.64C68.1917 18.208 67.6797 17.992 66.9757 17.992C66.1437 17.992 65.4877 18.288 65.0077 18.88C64.5437 19.456 64.3117 20.24 64.3117 21.232V28H61.3117ZM94.9556 28.24C93.7076 28.24 92.6276 27.984 91.7156 27.472C90.8036 26.96 90.0916 26.232 89.5796 25.288C89.0836 24.344 88.8356 23.224 88.8356 21.928C88.8356 20.632 89.0836 19.52 89.5796 18.592C90.0916 17.648 90.8036 16.92 91.7156 16.408C92.6276 15.896 93.7076 15.64 94.9556 15.64C96.2036 15.64 97.2836 15.896 98.1956 16.408C99.1236 16.92 99.8356 17.648 100.332 18.592C100.844 19.52 101.1 20.632 101.1 21.928C101.1 23.224 100.844 24.344 100.332 25.288C99.8356 26.232 99.1236 26.96 98.1956 27.472C97.2836 27.984 96.2036 28.24 94.9556 28.24ZM94.9556 25.936C95.8996 25.936 96.6516 25.608 97.2116 24.952C97.7716 24.28 98.0516 23.272 98.0516 21.928C98.0516 20.584 97.7716 19.584 97.2116 18.928C96.6516 18.272 95.8996 17.944 94.9556 17.944C94.0116 17.944 93.2596 18.272 92.6996 18.928C92.1396 19.584 91.8596 20.584 91.8596 21.928C91.8596 23.272 92.1396 24.28 92.6996 24.952C93.2596 25.608 94.0116 25.936 94.9556 25.936ZM108.007 28.24C106.967 28.24 106.007 28.12 105.127 27.88C104.263 27.624 103.535 27.272 102.943 26.824L103.783 24.808C104.391 25.224 105.063 25.544 105.799 25.768C106.535 25.992 107.279 26.104 108.031 26.104C108.831 26.104 109.423 25.968 109.807 25.696C110.207 25.424 110.407 25.056 110.407 24.592C110.407 24.224 110.279 23.936 110.023 23.728C109.783 23.504 109.391 23.336 108.847 23.224L106.447 22.768C105.423 22.544 104.639 22.16 104.095 21.616C103.567 21.072 103.303 20.36 103.303 19.48C103.303 18.728 103.503 18.064 103.903 17.488C104.319 16.912 104.903 16.464 105.655 16.144C106.423 15.808 107.319 15.64 108.343 15.64C109.239 15.64 110.079 15.76 110.863 16C111.663 16.24 112.335 16.6 112.879 17.08L112.015 19.024C111.519 18.624 110.951 18.312 110.311 18.088C109.671 17.864 109.047 17.752 108.439 17.752C107.607 17.752 106.999 17.904 106.615 18.208C106.231 18.496 106.039 18.872 106.039 19.336C106.039 19.688 106.151 19.984 106.375 20.224C106.615 20.448 106.983 20.616 107.479 20.728L109.879 21.184C110.951 21.392 111.759 21.76 112.303 22.288C112.863 22.8 113.143 23.504 113.143 24.4C113.143 25.2 112.927 25.888 112.495 26.464C112.063 27.04 111.463 27.48 110.695 27.784C109.927 28.088 109.031 28.24 108.007 28.24ZM127.912 33.376C126.792 33.376 125.776 33.256 124.864 33.016C123.968 32.776 123.168 32.408 122.464 31.912L123.112 29.752C123.576 30.056 124.056 30.304 124.552 30.496C125.048 30.688 125.56 30.832 126.088 30.928C126.616 31.024 127.152 31.072 127.696 31.072C128.816 31.072 129.648 30.792 130.192 30.232C130.752 29.688 131.032 28.904 131.032 27.88V24.976H131.272C131.016 25.808 130.496 26.472 129.712 26.968C128.944 27.464 128.056 27.712 127.048 27.712C125.96 27.712 125.008 27.472 124.192 26.992C123.392 26.496 122.768 25.792 122.32 24.88C121.872 23.968 121.648 22.896 121.648 21.664C121.648 20.432 121.872 19.368 122.32 18.472C122.768 17.56 123.392 16.864 124.192 16.384C125.008 15.888 125.96 15.64 127.048 15.64C128.072 15.64 128.96 15.888 129.712 16.384C130.48 16.864 130.992 17.52 131.248 18.352L131.032 18.208L131.272 15.88H134.176C134.112 16.376 134.064 16.88 134.032 17.392C134 17.904 133.984 18.408 133.984 18.904V27.52C133.984 29.424 133.464 30.872 132.424 31.864C131.4 32.872 129.896 33.376 127.912 33.376ZM127.864 25.408C128.824 25.408 129.584 25.088 130.144 24.448C130.72 23.792 131.008 22.864 131.008 21.664C131.008 20.464 130.72 19.544 130.144 18.904C129.584 18.264 128.824 17.944 127.864 17.944C126.888 17.944 126.112 18.264 125.536 18.904C124.96 19.544 124.672 20.464 124.672 21.664C124.672 22.864 124.96 23.792 125.536 24.448C126.112 25.088 126.888 25.408 127.864 25.408ZM141.906 28.24C140.85 28.24 139.922 27.992 139.122 27.496C138.322 26.984 137.698 26.256 137.25 25.312C136.802 24.368 136.578 23.24 136.578 21.928C136.578 20.616 136.802 19.496 137.25 18.568C137.698 17.624 138.322 16.904 139.122 16.408C139.922 15.896 140.85 15.64 141.906 15.64C142.93 15.64 143.826 15.896 144.594 16.408C145.378 16.904 145.898 17.576 146.154 18.424H145.89L146.154 15.88H149.034C148.986 16.376 148.938 16.88 148.89 17.392C148.858 17.904 148.842 18.408 148.842 18.904V28H145.866L145.842 25.504H146.13C145.874 26.336 145.354 27 144.57 27.496C143.786 27.992 142.898 28.24 141.906 28.24ZM142.746 25.936C143.69 25.936 144.45 25.608 145.026 24.952C145.602 24.28 145.89 23.272 145.89 21.928C145.89 20.584 145.602 19.584 145.026 18.928C144.45 18.272 143.69 17.944 142.746 17.944C141.802 17.944 141.042 18.272 140.466 18.928C139.89 19.584 139.602 20.584 139.602 21.928C139.602 23.272 139.882 24.28 140.442 24.952C141.018 25.608 141.786 25.936 142.746 25.936ZM157.293 28.24C155.853 28.24 154.765 27.864 154.029 27.112C153.293 26.36 152.925 25.232 152.925 23.728V18.136H150.597V15.88H152.925V12.784L155.925 12.016V15.88H159.165V18.136H155.925V23.536C155.925 24.368 156.085 24.952 156.405 25.288C156.725 25.624 157.165 25.792 157.725 25.792C158.029 25.792 158.285 25.768 158.493 25.72C158.717 25.672 158.933 25.608 159.141 25.528V27.904C158.869 28.016 158.565 28.096 158.229 28.144C157.909 28.208 157.597 28.24 157.293 28.24ZM166.557 28.24C165.309 28.24 164.229 27.984 163.317 27.472C162.405 26.96 161.693 26.232 161.181 25.288C160.685 24.344 160.437 23.224 160.437 21.928C160.437 20.632 160.685 19.52 161.181 18.592C161.693 17.648 162.405 16.92 163.317 16.408C164.229 15.896 165.309 15.64 166.557 15.64C167.805 15.64 168.885 15.896 169.797 16.408C170.725 16.92 171.437 17.648 171.933 18.592C172.445 19.52 172.701 20.632 172.701 21.928C172.701 23.224 172.445 24.344 171.933 25.288C171.437 26.232 170.725 26.96 169.797 27.472C168.885 27.984 167.805 28.24 166.557 28.24ZM166.557 25.936C167.501 25.936 168.253 25.608 168.813 24.952C169.373 24.28 169.653 23.272 169.653 21.928C169.653 20.584 169.373 19.584 168.813 18.928C168.253 18.272 167.501 17.944 166.557 17.944C165.613 17.944 164.861 18.272 164.301 18.928C163.741 19.584 163.461 20.584 163.461 21.928C163.461 23.272 163.741 24.28 164.301 24.952C164.861 25.608 165.613 25.936 166.557 25.936ZM179.608 28.24C178.568 28.24 177.608 28.12 176.728 27.88C175.864 27.624 175.136 27.272 174.544 26.824L175.384 24.808C175.992 25.224 176.664 25.544 177.4 25.768C178.136 25.992 178.88 26.104 179.632 26.104C180.432 26.104 181.024 25.968 181.408 25.696C181.808 25.424 182.008 25.056 182.008 24.592C182.008 24.224 181.88 23.936 181.624 23.728C181.384 23.504 180.992 23.336 180.448 23.224L178.048 22.768C177.024 22.544 176.24 22.16 175.696 21.616C175.168 21.072 174.904 20.36 174.904 19.48C174.904 18.728 175.104 18.064 175.504 17.488C175.92 16.912 176.504 16.464 177.256 16.144C178.024 15.808 178.92 15.64 179.944 15.64C180.84 15.64 181.68 15.76 182.464 16C183.264 16.24 183.936 16.6 184.48 17.08L183.616 19.024C183.12 18.624 182.552 18.312 181.912 18.088C181.272 17.864 180.648 17.752 180.04 17.752C179.208 17.752 178.6 17.904 178.216 18.208C177.832 18.496 177.64 18.872 177.64 19.336C177.64 19.688 177.752 19.984 177.976 20.224C178.216 20.448 178.584 20.616 179.08 20.728L181.48 21.184C182.552 21.392 183.36 21.76 183.904 22.288C184.464 22.8 184.744 23.504 184.744 24.4C184.744 25.2 184.528 25.888 184.096 26.464C183.664 27.04 183.064 27.48 182.296 27.784C181.528 28.088 180.632 28.24 179.608 28.24ZM198.578 28.24C197.522 28.24 196.594 27.992 195.794 27.496C194.994 26.984 194.37 26.256 193.922 25.312C193.474 24.368 193.25 23.24 193.25 21.928C193.25 20.616 193.474 19.496 193.922 18.568C194.37 17.624 194.994 16.904 195.794 16.408C196.594 15.896 197.522 15.64 198.578 15.64C199.602 15.64 200.498 15.896 201.266 16.408C202.05 16.904 202.57 17.576 202.826 18.424H202.562L202.826 15.88H205.706C205.658 16.376 205.61 16.88 205.562 17.392C205.53 17.904 205.514 18.408 205.514 18.904V28H202.538L202.514 25.504H202.802C202.546 26.336 202.026 27 201.242 27.496C200.458 27.992 199.57 28.24 198.578 28.24ZM199.418 25.936C200.362 25.936 201.122 25.608 201.698 24.952C202.274 24.28 202.562 23.272 202.562 21.928C202.562 20.584 202.274 19.584 201.698 18.928C201.122 18.272 200.362 17.944 199.418 17.944C198.474 17.944 197.714 18.272 197.138 18.928C196.562 19.584 196.274 20.584 196.274 21.928C196.274 23.272 196.554 24.28 197.114 24.952C197.69 25.608 198.458 25.936 199.418 25.936ZM213.1 28.24C212.06 28.24 211.1 28.12 210.22 27.88C209.356 27.624 208.628 27.272 208.036 26.824L208.876 24.808C209.484 25.224 210.156 25.544 210.892 25.768C211.628 25.992 212.372 26.104 213.124 26.104C213.924 26.104 214.516 25.968 214.9 25.696C215.3 25.424 215.5 25.056 215.5 24.592C215.5 24.224 215.372 23.936 215.116 23.728C214.876 23.504 214.484 23.336 213.94 23.224L211.54 22.768C210.516 22.544 209.732 22.16 209.188 21.616C208.66 21.072 208.396 20.36 208.396 19.48C208.396 18.728 208.596 18.064 208.996 17.488C209.412 16.912 209.996 16.464 210.748 16.144C211.516 15.808 212.412 15.64 213.436 15.64C214.332 15.64 215.172 15.76 215.956 16C216.756 16.24 217.428 16.6 217.972 17.08L217.108 19.024C216.612 18.624 216.044 18.312 215.404 18.088C214.764 17.864 214.14 17.752 213.532 17.752C212.7 17.752 212.092 17.904 211.708 18.208C211.324 18.496 211.132 18.872 211.132 19.336C211.132 19.688 211.244 19.984 211.468 20.224C211.708 20.448 212.076 20.616 212.572 20.728L214.972 21.184C216.044 21.392 216.852 21.76 217.396 22.288C217.956 22.8 218.236 23.504 218.236 24.4C218.236 25.2 218.02 25.888 217.588 26.464C217.156 27.04 216.556 27.48 215.788 27.784C215.02 28.088 214.124 28.24 213.1 28.24ZM225.871 28.24C224.431 28.24 223.343 27.864 222.607 27.112C221.871 26.36 221.503 25.232 221.503 23.728V18.136H219.175V15.88H221.503V12.784L224.503 12.016V15.88H227.743V18.136H224.503V23.536C224.503 24.368 224.663 24.952 224.983 25.288C225.303 25.624 225.743 25.792 226.303 25.792C226.607 25.792 226.863 25.768 227.071 25.72C227.295 25.672 227.511 25.608 227.719 25.528V27.904C227.447 28.016 227.143 28.096 226.807 28.144C226.487 28.208 226.175 28.24 225.871 28.24ZM229.756 28V18.976C229.756 18.464 229.74 17.944 229.708 17.416C229.692 16.888 229.652 16.376 229.588 15.88H232.492L232.828 19.192H232.348C232.508 18.392 232.772 17.728 233.14 17.2C233.524 16.672 233.988 16.28 234.532 16.024C235.076 15.768 235.668 15.64 236.308 15.64C236.596 15.64 236.828 15.656 237.004 15.688C237.18 15.704 237.356 15.744 237.532 15.808L237.508 18.448C237.204 18.32 236.94 18.24 236.716 18.208C236.508 18.176 236.244 18.16 235.924 18.16C235.236 18.16 234.652 18.304 234.172 18.592C233.708 18.88 233.356 19.28 233.116 19.792C232.892 20.304 232.78 20.888 232.78 21.544V28H229.756ZM244.487 28.24C243.239 28.24 242.159 27.984 241.247 27.472C240.335 26.96 239.623 26.232 239.111 25.288C238.615 24.344 238.367 23.224 238.367 21.928C238.367 20.632 238.615 19.52 239.111 18.592C239.623 17.648 240.335 16.92 241.247 16.408C242.159 15.896 243.239 15.64 244.487 15.64C245.735 15.64 246.815 15.896 247.727 16.408C248.655 16.92 249.367 17.648 249.863 18.592C250.375 19.52 250.631 20.632 250.631 21.928C250.631 23.224 250.375 24.344 249.863 25.288C249.367 26.232 248.655 26.96 247.727 27.472C246.815 27.984 245.735 28.24 244.487 28.24ZM244.487 25.936C245.431 25.936 246.183 25.608 246.743 24.952C247.303 24.28 247.583 23.272 247.583 21.928C247.583 20.584 247.303 19.584 246.743 18.928C246.183 18.272 245.431 17.944 244.487 17.944C243.543 17.944 242.791 18.272 242.231 18.928C241.671 19.584 241.391 20.584 241.391 21.928C241.391 23.272 241.671 24.28 242.231 24.952C242.791 25.608 243.543 25.936 244.487 25.936ZM253.218 28V18.904C253.218 18.408 253.202 17.904 253.17 17.392C253.138 16.88 253.09 16.376 253.026 15.88H255.93L256.17 18.28H255.882C256.266 17.432 256.834 16.784 257.586 16.336C258.338 15.872 259.21 15.64 260.202 15.64C261.626 15.64 262.698 16.04 263.418 16.84C264.138 17.64 264.498 18.888 264.498 20.584V28H261.498V20.728C261.498 19.752 261.306 19.056 260.922 18.64C260.554 18.208 259.994 17.992 259.242 17.992C258.314 17.992 257.578 18.28 257.034 18.856C256.49 19.432 256.218 20.2 256.218 21.16V28H253.218ZM272.359 28.24C271.303 28.24 270.375 27.992 269.575 27.496C268.775 26.984 268.151 26.256 267.703 25.312C267.255 24.368 267.031 23.24 267.031 21.928C267.031 20.616 267.255 19.496 267.703 18.568C268.151 17.624 268.775 16.904 269.575 16.408C270.375 15.896 271.303 15.64 272.359 15.64C273.383 15.64 274.279 15.896 275.047 16.408C275.831 16.904 276.351 17.576 276.607 18.424H276.343L276.607 15.88H279.487C279.439 16.376 279.391 16.88 279.343 17.392C279.311 17.904 279.295 18.408 279.295 18.904V28H276.319L276.295 25.504H276.583C276.327 26.336 275.807 27 275.023 27.496C274.239 27.992 273.351 28.24 272.359 28.24ZM273.199 25.936C274.143 25.936 274.903 25.608 275.479 24.952C276.055 24.28 276.343 23.272 276.343 21.928C276.343 20.584 276.055 19.584 275.479 18.928C274.903 18.272 274.143 17.944 273.199 17.944C272.255 17.944 271.495 18.272 270.919 18.928C270.343 19.584 270.055 20.584 270.055 21.928C270.055 23.272 270.335 24.28 270.895 24.952C271.471 25.608 272.239 25.936 273.199 25.936ZM286.93 28.24C285.442 28.24 284.33 27.832 283.594 27.016C282.858 26.2 282.49 24.952 282.49 23.272V15.88H285.49V23.248C285.49 24.144 285.674 24.808 286.042 25.24C286.41 25.656 286.97 25.864 287.722 25.864C288.57 25.864 289.258 25.576 289.786 25C290.33 24.424 290.602 23.664 290.602 22.72V15.88H293.602V28H290.674V25.528H291.01C290.658 26.392 290.122 27.064 289.402 27.544C288.698 28.008 287.874 28.24 286.93 28.24ZM302.043 28.24C300.603 28.24 299.515 27.864 298.779 27.112C298.043 26.36 297.675 25.232 297.675 23.728V18.136H295.347V15.88H297.675V12.784L300.675 12.016V15.88H303.915V18.136H300.675V23.536C300.675 24.368 300.835 24.952 301.155 25.288C301.475 25.624 301.915 25.792 302.475 25.792C302.779 25.792 303.035 25.768 303.243 25.72C303.467 25.672 303.683 25.608 303.891 25.528V27.904C303.619 28.016 303.315 28.096 302.979 28.144C302.659 28.208 302.347 28.24 302.043 28.24ZM310.632 28.24C309.576 28.24 308.648 27.992 307.848 27.496C307.048 26.984 306.424 26.256 305.976 25.312C305.528 24.368 305.304 23.24 305.304 21.928C305.304 20.616 305.528 19.496 305.976 18.568C306.424 17.624 307.048 16.904 307.848 16.408C308.648 15.896 309.576 15.64 310.632 15.64C311.656 15.64 312.552 15.896 313.32 16.408C314.104 16.904 314.624 17.576 314.88 18.424H314.616L314.88 15.88H317.76C317.712 16.376 317.664 16.88 317.616 17.392C317.584 17.904 317.568 18.408 317.568 18.904V28H314.592L314.568 25.504H314.856C314.6 26.336 314.08 27 313.296 27.496C312.512 27.992 311.624 28.24 310.632 28.24ZM311.472 25.936C312.416 25.936 313.176 25.608 313.752 24.952C314.328 24.28 314.616 23.272 314.616 21.928C314.616 20.584 314.328 19.584 313.752 18.928C313.176 18.272 312.416 17.944 311.472 17.944C310.528 17.944 309.768 18.272 309.192 18.928C308.616 19.584 308.328 20.584 308.328 21.928C308.328 23.272 308.608 24.28 309.168 24.952C309.744 25.608 310.512 25.936 311.472 25.936ZM325.155 28.24C324.115 28.24 323.155 28.12 322.275 27.88C321.411 27.624 320.683 27.272 320.091 26.824L320.931 24.808C321.539 25.224 322.211 25.544 322.947 25.768C323.683 25.992 324.427 26.104 325.179 26.104C325.979 26.104 326.571 25.968 326.955 25.696C327.355 25.424 327.555 25.056 327.555 24.592C327.555 24.224 327.427 23.936 327.171 23.728C326.931 23.504 326.539 23.336 325.995 23.224L323.595 22.768C322.571 22.544 321.787 22.16 321.243 21.616C320.715 21.072 320.451 20.36 320.451 19.48C320.451 18.728 320.651 18.064 321.051 17.488C321.467 16.912 322.051 16.464 322.803 16.144C323.571 15.808 324.467 15.64 325.491 15.64C326.387 15.64 327.227 15.76 328.011 16C328.811 16.24 329.483 16.6 330.027 17.08L329.163 19.024C328.667 18.624 328.099 18.312 327.459 18.088C326.819 17.864 326.195 17.752 325.587 17.752C324.755 17.752 324.147 17.904 323.763 18.208C323.379 18.496 323.187 18.872 323.187 19.336C323.187 19.688 323.299 19.984 323.523 20.224C323.763 20.448 324.131 20.616 324.627 20.728L327.027 21.184C328.099 21.392 328.907 21.76 329.451 22.288C330.011 22.8 330.291 23.504 330.291 24.4C330.291 25.2 330.075 25.888 329.643 26.464C329.211 27.04 328.611 27.48 327.843 27.784C327.075 28.088 326.179 28.24 325.155 28.24ZM335.096 22.984V22.024C335.096 21.272 335.24 20.576 335.528 19.936C335.816 19.296 336.312 18.6 337.016 17.848C337.544 17.288 337.912 16.8 338.12 16.384C338.344 15.952 338.456 15.52 338.456 15.088C338.456 14.544 338.248 14.12 337.832 13.816C337.432 13.512 336.872 13.36 336.152 13.36C335.528 13.36 334.912 13.456 334.304 13.648C333.696 13.84 333.12 14.096 332.576 14.416V11.824C333.136 11.504 333.768 11.264 334.472 11.104C335.192 10.928 335.896 10.84 336.584 10.84C337.528 10.84 338.368 10.984 339.104 11.272C339.856 11.544 340.44 11.968 340.856 12.544C341.288 13.104 341.504 13.824 341.504 14.704C341.504 15.232 341.408 15.744 341.216 16.24C341.04 16.72 340.784 17.184 340.448 17.632C340.112 18.08 339.696 18.528 339.2 18.976C338.416 19.664 337.872 20.264 337.568 20.776C337.264 21.288 337.08 21.8 337.016 22.312L336.92 22.984H335.096ZM334.328 28V24.664H337.688V28H334.328Z" fill="#202024"/>
<rect x="0.5" y="46" width="40" height="40" rx="20" fill="#065E7C"/>
<path fill-rule="evenodd" clip-rule="evenodd" d="M19.5792 59.9146C19.7062 59.6605 19.9659 59.5 20.25 59.5C20.9793 59.5 21.6788 59.7897 22.1945 60.3055C22.7103 60.8212 23 61.5207 23 62.25V63H26.1179C26.3664 62.9995 26.6121 63.0522 26.8385 63.1544C27.0653 63.2567 27.2676 63.4064 27.4317 63.5934C27.5958 63.7804 27.7181 64.0004 27.7902 64.2385C27.8619 64.4756 27.8824 64.7252 27.8501 64.9707L27.1004 70.9687C27.0473 71.3903 26.8426 71.7781 26.5247 72.0598C26.2067 72.3416 25.7971 72.498 25.3722 72.5L25.3687 72.5H14.75C14.4185 72.5 14.1005 72.3683 13.8661 72.1339C13.6317 71.8995 13.5 71.5815 13.5 71.25V65.75C13.5 65.4185 13.6317 65.1005 13.8661 64.8661C14.1005 64.6317 14.4185 64.5 14.75 64.5H17.2865L19.5792 59.9146ZM17 66H15V71H17V66ZM18.5 71H25.3664C25.4267 70.9995 25.4847 70.9771 25.5299 70.9371C25.5753 70.8969 25.6045 70.8415 25.6121 70.7813L26.362 64.782L26.3628 64.7759C26.3674 64.7415 26.3646 64.7064 26.3545 64.6731C26.3444 64.6398 26.3273 64.6091 26.3044 64.5829C26.2815 64.5568 26.2532 64.5359 26.2215 64.5216C26.1898 64.5073 26.1554 64.4999 26.1206 64.5L26.1187 64.5H22.25C21.8358 64.5 21.5 64.1642 21.5 63.75V62.25C21.5 61.9185 21.3683 61.6005 21.1339 61.3661C21.0032 61.2354 20.8466 61.1367 20.6761 61.0749L18.5 65.4271V71Z" fill="white"/>
<rect x="52.5" y="46" width="40" height="40" rx="20" fill="#065E7C"/>
<path fill-rule="evenodd" clip-rule="evenodd" d="M67 61V66H69V61H67ZM70.5 61V66.5729L72.6761 70.9251C72.8466 70.8633 73.0032 70.7646 73.1339 70.6339C73.3683 70.3995 73.5 70.0815 73.5 69.75V68.25C73.5 67.8358 73.8358 67.5 74.25 67.5H78.1187L78.1206 67.5C78.1554 67.5001 78.1898 67.4927 78.2215 67.4784C78.2532 67.4641 78.2815 67.4432 78.3044 67.4171C78.3273 67.3909 78.3444 67.3602 78.3545 67.3269C78.3646 67.2936 78.3674 67.2585 78.3628 67.2241L78.362 67.218L77.6121 61.2187C77.6045 61.1585 77.5753 61.1031 77.5299 61.0629C77.4848 61.0229 77.4267 61.0006 77.3664 61H70.5ZM69.2865 67.5H66.75C66.4185 67.5 66.1005 67.3683 65.8661 67.1339C65.6317 66.8995 65.5 66.5815 65.5 66.25V60.75C65.5 60.4185 65.6317 60.1005 65.8661 59.8661C66.1005 59.6317 66.4185 59.5 66.75 59.5H77.3687L77.3722 59.5C77.7971 59.502 78.2067 59.6584 78.5247 59.9402C78.8426 60.2219 79.0473 60.6097 79.1004 61.0313L79.1005 61.032L79.8501 67.0293C79.8824 67.2748 79.8619 67.5244 79.7902 67.7615C79.7181 67.9996 79.5958 68.2196 79.4317 68.4066C79.2676 68.5936 79.0653 68.7433 78.8385 68.8456C78.6121 68.9478 78.3665 69.0004 78.1181 69H75V69.75C75 70.4793 74.7103 71.1788 74.1945 71.6945C73.6788 72.2103 72.9793 72.5 72.25 72.5C71.9659 72.5 71.7062 72.3395 71.5792 72.0854L69.2865 67.5Z" fill="white"/>
</svg>
